<?xml version="1.0" encoding="utf-8"?>
<!-- Generator: Adobe Illustrator 23.0.5, SVG Export Plug-In . SVG Version: 6.00 Build 0)  -->
<svg version="1.1" id="Capa_1" xmlns="http://www.w3.org/2000/svg" xmlns:xlink="http://www.w3.org/1999/xlink" x="0px" y="0px"
	 viewBox="0 0 16 16" style="enable-background:new 0 0 16 16;" xml:space="preserve">
<style type="text/css">
	.st0{fill:#2AA198;}
</style>
<path class="st0" d="M5,1C3.9,1,3,1.9,3,3v1h10V3c0-1.1-0.9-2-2-2H5z M11,9H5c-0.6,0-1,0.4-1,1v3c0,0.6,0.4,1,1,1h6c0.6,0,1-0.4,1-1
	v-3C12,9.4,11.6,9,11,9z"/>
<path class="st0" d="M0,7c0-1.1,0.9-2,2-2h12c1.1,0,2,0.9,2,2v3c0,1.1-0.9,2-2,2h-1v-2c0-1.1-0.9-2-2-2H5c-1.1,0-2,0.9-2,2v2H2
	c-1.1,0-2-0.9-2-2V7z M2.5,8C2.8,8,3,7.8,3,7.5S2.8,7,2.5,7S2,7.2,2,7.5S2.2,8,2.5,8z"/>
</svg>
