<?xml version="1.0" encoding="utf-8"?>
<!-- Generator: Adobe Illustrator 23.0.5, SVG Export Plug-In . SVG Version: 6.00 Build 0)  -->
<svg version="1.1" id="Capa_1" xmlns="http://www.w3.org/2000/svg" xmlns:xlink="http://www.w3.org/1999/xlink" x="0px" y="0px"
	 viewBox="0 0 16 16" style="enable-background:new 0 0 16 16;" xml:space="preserve">
<style type="text/css">
	.st0{fill-rule:evenodd;clip-rule:evenodd;fill:#2AA198;}
</style>
<path class="st0" d="M8,0C7.3,0,6.2,0.3,5.1,0.6C4,0.9,2.8,1.2,2.2,1.4c-0.6,0.2-1,0.7-1,1.3c-0.6,4.5,0.8,7.8,2.5,10
	c0.7,0.9,1.6,1.8,2.5,2.5c0.4,0.3,0.7,0.5,1,0.6C7.5,15.9,7.8,16,8,16s0.5-0.1,0.8-0.2c0.4-0.2,0.7-0.4,1-0.6c1-0.7,1.8-1.5,2.5-2.5
	c1.7-2.2,3.1-5.5,2.5-10c-0.1-0.6-0.5-1.1-1-1.3c-1-0.3-1.9-0.6-2.9-0.9C9.8,0.3,8.7,0,8,0z M7.4,8.5L7.1,5C7,4.5,7.4,4.1,7.9,4
	c0.5-0.1,0.9,0.3,1,0.8c0,0.1,0,0.1,0,0.2L8.5,8.5C8.5,8.8,8.3,9,8,9C7.7,9,7.5,8.8,7.4,8.5z M8,12c-0.6,0-1-0.4-1-1s0.4-1,1-1
	s1,0.4,1,1S8.6,12,8,12z"/>
</svg>
